<svg width="120" height="80" viewBox="0 0 120 80" fill="none" xmlns="http://www.w3.org/2000/svg">
  <!-- Ship body -->
  <path d="M20 50 L100 50 L95 65 L25 65 Z" fill="white" stroke="white" stroke-width="2"/>
  <path d="M30 50 L90 50 L85 60 L35 60 Z" fill="white" opacity="0.8"/>
  
  <!-- Cabin -->
  <rect x="45" y="35" width="30" height="15" fill="white" stroke="white" stroke-width="1.5"/>
  <rect x="50" y="38" width="8" height="8" fill="#0EA5E9" opacity="0.6"/>
  <rect x="62" y="38" width="8" height="8" fill="#0EA5E9" opacity="0.6"/>
  
  <!-- Chimney -->
  <rect x="55" y="25" width="10" height="10" fill="white" stroke="white" stroke-width="1.5"/>
  <rect x="53" y="23" width="14" height="3" fill="white"/>
  
  <!-- Waves -->
  <path d="M0 65 Q10 63 20 65 T40 65 T60 65 T80 65 T100 65 T120 65" stroke="white" stroke-width="1.5" fill="none" opacity="0.6"/>
  <path d="M0 70 Q10 68 20 70 T40 70 T60 70 T80 70 T100 70 T120 70" stroke="white" stroke-width="1" fill="none" opacity="0.4"/>
  
  <!-- Text -->
  <text x="60" y="78" text-anchor="middle" font-family="Arial, sans-serif" font-size="10" font-weight="bold" fill="white">TRAVEL SHIP</text>
</svg>
